<svg id="visual" viewBox="0 0 900 600" width="900" height="600" xmlns="http://www.w3.org/2000/svg" xmlns:xlink="http://www.w3.org/1999/xlink" version="1.1"><g stroke-width="1" stroke-linejoin="bevel"><path d="M450.5 323L416.5 370L463.5 326Z" fill="#134167" stroke="#134167"></path><path d="M416.5 370L479.5 340L463.5 326Z" fill="#0f3c61" stroke="#0f3c61"></path><path d="M416.5 370L475.5 404L479.5 340Z" fill="#1a4a72" stroke="#1a4a72"></path><path d="M376.6 362L385.5 376L416.5 370Z" fill="#17466d" stroke="#17466d"></path><path d="M397.6 444L479.5 447L475.5 404Z" fill="#002b4c" stroke="#002b4c"></path><path d="M373.6 351L376.6 362L416.5 370Z" fill="#134167" stroke="#134167"></path><path d="M450.5 323L373.6 351L416.5 370Z" fill="#1e4f78" stroke="#1e4f78"></path><path d="M397.6 444L475.5 404L416.5 370Z" fill="#032f51" stroke="#032f51"></path><path d="M561.4 342L540.4 291L479.5 340Z" fill="#1e4f78" stroke="#1e4f78"></path><path d="M484.5 255L394.6 276L450.5 323Z" fill="#032f51" stroke="#032f51"></path><path d="M450.5 323L394.6 276L373.6 351Z" fill="#1a4a72" stroke="#1a4a72"></path><path d="M347.6 429L397.6 444L385.5 376Z" fill="#073457" stroke="#073457"></path><path d="M385.5 376L397.6 444L416.5 370Z" fill="#22547e" stroke="#22547e"></path><path d="M347.6 429L385.5 376L376.6 362Z" fill="#1a4a72" stroke="#1a4a72"></path><path d="M540.4 291L484.5 255L463.5 326Z" fill="#17466d" stroke="#17466d"></path><path d="M463.5 326L484.5 255L450.5 323Z" fill="#073457" stroke="#073457"></path><path d="M540.4 291L463.5 326L479.5 340Z" fill="#0b385c" stroke="#0b385c"></path><path d="M394.6 276L344.6 326L373.6 351Z" fill="#073457" stroke="#073457"></path><path d="M373.6 351L337.6 349L376.6 362Z" fill="#1e4f78" stroke="#1e4f78"></path><path d="M344.6 326L337.6 349L373.6 351Z" fill="#255984" stroke="#255984"></path><path d="M561.4 342L479.5 340L566.4 353Z" fill="#0f3c61" stroke="#0f3c61"></path><path d="M552.4 406L479.5 340L475.5 404Z" fill="#002b4c" stroke="#002b4c"></path><path d="M479.5 447L552.4 406L475.5 404Z" fill="#22547e" stroke="#22547e"></path><path d="M552.4 406L566.4 353L479.5 340Z" fill="#002b4c" stroke="#002b4c"></path><path d="M561.4 342L551.4 275L540.4 291Z" fill="#073457" stroke="#073457"></path><path d="M397.6 444L447.5 479L479.5 447Z" fill="#1a4a72" stroke="#1a4a72"></path><path d="M479.5 447L548.4 460L552.4 406Z" fill="#17466d" stroke="#17466d"></path><path d="M337.6 349L347.6 429L376.6 362Z" fill="#134167" stroke="#134167"></path><path d="M369.6 470L450.5 492L447.5 479Z" fill="#073457" stroke="#073457"></path><path d="M385.5 211L340.6 285L394.6 276Z" fill="#002b4c" stroke="#002b4c"></path><path d="M394.6 276L340.6 285L344.6 326Z" fill="#073457" stroke="#073457"></path><path d="M344.6 326L320.6 287L337.6 349Z" fill="#073457" stroke="#073457"></path><path d="M598.3 265L551.4 275L561.4 342Z" fill="#0f3c61" stroke="#0f3c61"></path><path d="M540.4 291L533.4 249L484.5 255Z" fill="#17466d" stroke="#17466d"></path><path d="M369.6 470L447.5 479L397.6 444Z" fill="#0f3c61" stroke="#0f3c61"></path><path d="M447.5 479L450.5 492L479.5 447Z" fill="#17466d" stroke="#17466d"></path><path d="M494.5 215L438.5 222L484.5 255Z" fill="#1a4a72" stroke="#1a4a72"></path><path d="M484.5 255L438.5 222L394.6 276Z" fill="#1a4a72" stroke="#1a4a72"></path><path d="M347.6 429L369.6 470L397.6 444Z" fill="#255984" stroke="#255984"></path><path d="M551.4 275L533.4 249L540.4 291Z" fill="#1a4a72" stroke="#1a4a72"></path><path d="M530.4 529L548.4 460L479.5 447Z" fill="#22547e" stroke="#22547e"></path><path d="M552.4 406L622.3 376L566.4 353Z" fill="#1e4f78" stroke="#1e4f78"></path><path d="M322.6 176L320.6 287L340.6 285Z" fill="#22547e" stroke="#22547e"></path><path d="M340.6 285L320.6 287L344.6 326Z" fill="#002b4c" stroke="#002b4c"></path><path d="M258.7 421L315.6 484L347.6 429Z" fill="#0f3c61" stroke="#0f3c61"></path><path d="M533.4 249L494.5 215L484.5 255Z" fill="#255984" stroke="#255984"></path><path d="M373.6 195L385.5 211L443.5 151Z" fill="#1e4f78" stroke="#1e4f78"></path><path d="M438.5 222L385.5 211L394.6 276Z" fill="#0f3c61" stroke="#0f3c61"></path><path d="M548.4 460L602.4 434L552.4 406Z" fill="#134167" stroke="#134167"></path><path d="M566.4 353L657.2 332L561.4 342Z" fill="#17466d" stroke="#17466d"></path><path d="M602.4 434L622.3 376L552.4 406Z" fill="#17466d" stroke="#17466d"></path><path d="M551.4 275L567.4 214L533.4 249Z" fill="#002b4c" stroke="#002b4c"></path><path d="M548.4 460L605.4 437L602.4 434Z" fill="#073457" stroke="#073457"></path><path d="M602.4 434L632.3 390L622.3 376Z" fill="#22547e" stroke="#22547e"></path><path d="M657.2 332L598.3 265L561.4 342Z" fill="#17466d" stroke="#17466d"></path><path d="M533.4 249L547.4 184L494.5 215Z" fill="#1a4a72" stroke="#1a4a72"></path><path d="M349.6 513L457.5 536L450.5 492Z" fill="#002b4c" stroke="#002b4c"></path><path d="M450.5 492L530.4 529L479.5 447Z" fill="#002b4c" stroke="#002b4c"></path><path d="M548.4 460L606.4 499L605.4 437Z" fill="#134167" stroke="#134167"></path><path d="M443.5 151L385.5 211L438.5 222Z" fill="#22547e" stroke="#22547e"></path><path d="M385.5 211L373.6 195L340.6 285Z" fill="#1a4a72" stroke="#1a4a72"></path><path d="M258.7 421L347.6 429L337.6 349Z" fill="#134167" stroke="#134167"></path><path d="M347.6 429L315.6 484L369.6 470Z" fill="#032f51" stroke="#032f51"></path><path d="M369.6 470L349.6 513L450.5 492Z" fill="#002b4c" stroke="#002b4c"></path><path d="M315.6 484L349.6 513L369.6 470Z" fill="#1a4a72" stroke="#1a4a72"></path><path d="M605.4 437L632.3 390L602.4 434Z" fill="#0f3c61" stroke="#0f3c61"></path><path d="M622.3 376L657.2 332L566.4 353Z" fill="#22547e" stroke="#22547e"></path><path d="M598.3 265L567.4 214L551.4 275Z" fill="#1e4f78" stroke="#1e4f78"></path><path d="M494.5 215L443.5 151L438.5 222Z" fill="#0b385c" stroke="#0b385c"></path><path d="M457.5 536L530.4 529L450.5 492Z" fill="#073457" stroke="#073457"></path><path d="M650.3 212L566.4 202L567.4 214Z" fill="#1e4f78" stroke="#1e4f78"></path><path d="M567.4 214L547.4 184L533.4 249Z" fill="#0f3c61" stroke="#0f3c61"></path><path d="M249.7 374L337.6 349L320.6 287Z" fill="#002b4c" stroke="#002b4c"></path><path d="M249.7 374L253.7 377L337.6 349Z" fill="#22547e" stroke="#22547e"></path><path d="M566.4 202L547.4 184L567.4 214Z" fill="#073457" stroke="#073457"></path><path d="M242.7 280L249.7 374L320.6 287Z" fill="#134167" stroke="#134167"></path><path d="M253.7 377L258.7 421L337.6 349Z" fill="#0b385c" stroke="#0b385c"></path><path d="M232.8 407L258.7 421L253.7 377Z" fill="#032f51" stroke="#032f51"></path><path d="M471.5 567L504.4 553L457.5 536Z" fill="#032f51" stroke="#032f51"></path><path d="M457.5 536L504.4 553L530.4 529Z" fill="#0f3c61" stroke="#0f3c61"></path><path d="M494.4 113L443.5 151L494.5 215Z" fill="#0f3c61" stroke="#0f3c61"></path><path d="M632.3 390L657.2 332L622.3 376Z" fill="#002b4c" stroke="#002b4c"></path><path d="M603.3 125L560.4 158L566.4 202Z" fill="#0f3c61" stroke="#0f3c61"></path><path d="M440.5 574L471.5 567L457.5 536Z" fill="#032f51" stroke="#032f51"></path><path d="M530.4 529L606.4 499L548.4 460Z" fill="#1e4f78" stroke="#1e4f78"></path><path d="M605.4 437L655.2 416L632.3 390Z" fill="#22547e" stroke="#22547e"></path><path d="M632.3 390L655.2 416L657.2 332Z" fill="#134167" stroke="#134167"></path><path d="M594.4 536L606.4 499L530.4 529Z" fill="#255984" stroke="#255984"></path><path d="M232.8 438L297.6 508L315.6 484Z" fill="#17466d" stroke="#17466d"></path><path d="M315.6 484L297.6 508L349.6 513Z" fill="#073457" stroke="#073457"></path><path d="M349.6 513L440.5 574L457.5 536Z" fill="#1e4f78" stroke="#1e4f78"></path><path d="M652.3 467L655.2 416L605.4 437Z" fill="#073457" stroke="#073457"></path><path d="M392.5 600L440.5 574L349.6 513Z" fill="#255984" stroke="#255984"></path><path d="M240.7 245L242.7 280L320.6 287Z" fill="#1a4a72" stroke="#1a4a72"></path><path d="M356.6 127L322.6 176L373.6 195Z" fill="#073457" stroke="#073457"></path><path d="M373.6 195L322.6 176L340.6 285Z" fill="#255984" stroke="#255984"></path><path d="M249.7 374L232.8 407L253.7 377Z" fill="#1a4a72" stroke="#1a4a72"></path><path d="M258.7 421L232.8 438L315.6 484Z" fill="#0b385c" stroke="#0b385c"></path><path d="M211.8 370L232.8 407L249.7 374Z" fill="#0f3c61" stroke="#0f3c61"></path><path d="M566.4 202L560.4 158L547.4 184Z" fill="#002b4c" stroke="#002b4c"></path><path d="M494.4 113L466.5 111L443.5 151Z" fill="#17466d" stroke="#17466d"></path><path d="M650.3 212L567.4 214L598.3 265Z" fill="#002b4c" stroke="#002b4c"></path><path d="M522.4 600L530.4 529L504.4 553Z" fill="#1a4a72" stroke="#1a4a72"></path><path d="M522.4 600L594.4 536L530.4 529Z" fill="#1e4f78" stroke="#1e4f78"></path><path d="M606.4 499L652.3 467L605.4 437Z" fill="#002b4c" stroke="#002b4c"></path><path d="M666.2 524L652.3 467L606.4 499Z" fill="#002b4c" stroke="#002b4c"></path><path d="M232.8 407L232.8 438L258.7 421Z" fill="#17466d" stroke="#17466d"></path><path d="M228.8 286L225.8 299L242.7 280Z" fill="#255984" stroke="#255984"></path><path d="M242.7 280L225.8 299L249.7 374Z" fill="#002b4c" stroke="#002b4c"></path><path d="M232.8 407L180.8 470L232.8 438Z" fill="#255984" stroke="#255984"></path><path d="M447.5 114L385.5 135L443.5 151Z" fill="#22547e" stroke="#22547e"></path><path d="M443.5 151L385.5 135L373.6 195Z" fill="#0b385c" stroke="#0b385c"></path><path d="M240.7 245L228.8 286L242.7 280Z" fill="#22547e" stroke="#22547e"></path><path d="M245.7 229L240.7 245L320.6 287Z" fill="#0f3c61" stroke="#0f3c61"></path><path d="M225.8 299L211.8 370L249.7 374Z" fill="#0b385c" stroke="#0b385c"></path><path d="M666.2 524L662.3 465L652.3 467Z" fill="#134167" stroke="#134167"></path><path d="M652.3 467L674.2 443L655.2 416Z" fill="#032f51" stroke="#032f51"></path><path d="M728.2 348L720.2 312L657.2 332Z" fill="#073457" stroke="#073457"></path><path d="M662.3 465L674.2 443L652.3 467Z" fill="#134167" stroke="#134167"></path><path d="M322.6 176L245.7 229L320.6 287Z" fill="#002b4c" stroke="#002b4c"></path><path d="M686.2 294L669.2 257L657.2 332Z" fill="#22547e" stroke="#22547e"></path><path d="M657.2 332L669.2 257L598.3 265Z" fill="#032f51" stroke="#032f51"></path><path d="M611.4 600L620.3 530L594.4 536Z" fill="#1e4f78" stroke="#1e4f78"></path><path d="M594.4 536L620.3 530L606.4 499Z" fill="#1e4f78" stroke="#1e4f78"></path><path d="M466.5 111L447.5 114L443.5 151Z" fill="#002b4c" stroke="#002b4c"></path><path d="M232.8 438L262.7 517L297.6 508Z" fill="#22547e" stroke="#22547e"></path><path d="M385.6 600L392.5 600L349.6 513Z" fill="#22547e" stroke="#22547e"></path><path d="M720.2 312L686.2 294L657.2 332Z" fill="#1a4a72" stroke="#1a4a72"></path><path d="M440.5 574L498.5 600L471.5 567Z" fill="#002b4c" stroke="#002b4c"></path><path d="M471.5 567L498.5 600L504.4 553Z" fill="#1a4a72" stroke="#1a4a72"></path><path d="M392.5 600L498.5 600L440.5 574Z" fill="#002b4c" stroke="#002b4c"></path><path d="M494.4 113L494.5 215L547.4 184Z" fill="#255984" stroke="#255984"></path><path d="M658.3 220L598.3 265L669.2 257Z" fill="#134167" stroke="#134167"></path><path d="M658.3 220L650.3 212L598.3 265Z" fill="#1a4a72" stroke="#1a4a72"></path><path d="M385.6 600L349.6 513L295.6 572Z" fill="#032f51" stroke="#032f51"></path><path d="M385.5 135L356.6 127L373.6 195Z" fill="#073457" stroke="#073457"></path><path d="M322.6 176L272.7 180L245.7 229Z" fill="#0b385c" stroke="#0b385c"></path><path d="M396.6 92L356.6 127L385.5 135Z" fill="#002b4c" stroke="#002b4c"></path><path d="M396.6 92L385.5 135L447.5 114Z" fill="#22547e" stroke="#22547e"></path><path d="M560.4 158L494.4 113L547.4 184Z" fill="#17466d" stroke="#17466d"></path><path d="M561.4 80L494.4 113L560.4 158Z" fill="#1a4a72" stroke="#1a4a72"></path><path d="M295.6 572L349.6 513L297.6 508Z" fill="#1a4a72" stroke="#1a4a72"></path><path d="M719.2 171L658.3 220L669.2 257Z" fill="#032f51" stroke="#032f51"></path><path d="M325.6 136L272.7 180L322.6 176Z" fill="#134167" stroke="#134167"></path><path d="M498.5 600L522.4 600L504.4 553Z" fill="#002b4c" stroke="#002b4c"></path><path d="M356.6 127L325.6 136L322.6 176Z" fill="#1a4a72" stroke="#1a4a72"></path><path d="M238.8 513L249.7 522L262.7 517Z" fill="#1a4a72" stroke="#1a4a72"></path><path d="M262.7 517L295.6 572L297.6 508Z" fill="#032f51" stroke="#032f51"></path><path d="M238.8 513L262.7 517L232.8 438Z" fill="#1a4a72" stroke="#1a4a72"></path><path d="M272.7 180L233.8 211L245.7 229Z" fill="#1e4f78" stroke="#1e4f78"></path><path d="M245.7 229L233.8 211L240.7 245Z" fill="#032f51" stroke="#032f51"></path><path d="M240.7 245L192.8 291L228.8 286Z" fill="#22547e" stroke="#22547e"></path><path d="M228.8 286L192.8 291L225.8 299Z" fill="#032f51" stroke="#032f51"></path><path d="M225.8 299L177.8 345L211.8 370Z" fill="#002b4c" stroke="#002b4c"></path><path d="M213.8 122L233.8 211L272.7 180Z" fill="#1e4f78" stroke="#1e4f78"></path><path d="M180.8 470L238.8 513L232.8 438Z" fill="#134167" stroke="#134167"></path><path d="M284.6 600L295.6 572L249.7 600Z" fill="#17466d" stroke="#17466d"></path><path d="M249.7 522L295.6 572L262.7 517Z" fill="#1a4a72" stroke="#1a4a72"></path><path d="M162.8 265L192.8 291L240.7 245Z" fill="#032f51" stroke="#032f51"></path><path d="M211.8 370L164.8 373L232.8 407Z" fill="#073457" stroke="#073457"></path><path d="M405.6 71L447.5 114L465.5 37Z" fill="#22547e" stroke="#22547e"></path><path d="M405.6 71L396.6 92L447.5 114Z" fill="#1a4a72" stroke="#1a4a72"></path><path d="M356.6 127L302.6 94L325.6 136Z" fill="#134167" stroke="#134167"></path><path d="M192.8 291L177.8 345L225.8 299Z" fill="#255984" stroke="#255984"></path><path d="M662.3 465L717.2 499L674.2 443Z" fill="#17466d" stroke="#17466d"></path><path d="M620.3 530L666.2 524L606.4 499Z" fill="#22547e" stroke="#22547e"></path><path d="M640.3 600L666.2 524L620.3 530Z" fill="#0f3c61" stroke="#0f3c61"></path><path d="M728.2 348L657.2 332L655.2 416Z" fill="#073457" stroke="#073457"></path><path d="M686.2 294L760.2 251L669.2 257Z" fill="#1a4a72" stroke="#1a4a72"></path><path d="M728.2 348L655.2 416L674.2 443Z" fill="#22547e" stroke="#22547e"></path><path d="M767.2 380L728.2 348L674.2 443Z" fill="#17466d" stroke="#17466d"></path><path d="M648.3 123L650.3 212L707.2 143Z" fill="#002b4c" stroke="#002b4c"></path><path d="M648.3 123L603.3 125L650.3 212Z" fill="#0f3c61" stroke="#0f3c61"></path><path d="M650.3 212L603.3 125L566.4 202Z" fill="#0f3c61" stroke="#0f3c61"></path><path d="M465.5 37L447.5 114L466.5 111Z" fill="#002b4c" stroke="#002b4c"></path><path d="M131.9 319L164.8 373L177.8 345Z" fill="#134167" stroke="#134167"></path><path d="M177.8 345L164.8 373L211.8 370Z" fill="#17466d" stroke="#17466d"></path><path d="M465.5 37L466.5 111L494.4 113Z" fill="#032f51" stroke="#032f51"></path><path d="M349.6 63L302.6 94L356.6 127Z" fill="#0b385c" stroke="#0b385c"></path><path d="M164.8 373L180.8 470L232.8 407Z" fill="#1e4f78" stroke="#1e4f78"></path><path d="M249.7 600L295.6 572L249.7 522Z" fill="#0b385c" stroke="#0b385c"></path><path d="M522.4 600L611.4 600L594.4 536Z" fill="#0b385c" stroke="#0b385c"></path><path d="M195.8 529L249.7 522L238.8 513Z" fill="#17466d" stroke="#17466d"></path><path d="M295.6 572L284.6 600L385.6 600Z" fill="#032f51" stroke="#032f51"></path><path d="M603.3 125L561.4 80L560.4 158Z" fill="#002b4c" stroke="#002b4c"></path><path d="M233.8 211L162.8 265L240.7 245Z" fill="#1a4a72" stroke="#1a4a72"></path><path d="M192.8 291L131.9 319L177.8 345Z" fill="#1a4a72" stroke="#1a4a72"></path><path d="M148.8 184L162.8 265L233.8 211Z" fill="#032f51" stroke="#032f51"></path><path d="M259.7 93L272.7 180L325.6 136Z" fill="#17466d" stroke="#17466d"></path><path d="M349.6 63L356.6 127L396.6 92Z" fill="#255984" stroke="#255984"></path><path d="M724.2 520L717.2 499L666.2 524Z" fill="#032f51" stroke="#032f51"></path><path d="M666.2 524L717.2 499L662.3 465Z" fill="#134167" stroke="#134167"></path><path d="M561.4 80L544.4 68L494.4 113Z" fill="#1a4a72" stroke="#1a4a72"></path><path d="M180.8 470L195.8 529L238.8 513Z" fill="#17466d" stroke="#17466d"></path><path d="M575.4 64L557.4 71L561.4 80Z" fill="#134167" stroke="#134167"></path><path d="M561.4 80L557.4 71L544.4 68Z" fill="#073457" stroke="#073457"></path><path d="M719.2 171L650.3 212L658.3 220Z" fill="#073457" stroke="#073457"></path><path d="M603.3 125L575.4 64L561.4 80Z" fill="#17466d" stroke="#17466d"></path><path d="M611.4 600L640.3 600L620.3 530Z" fill="#002b4c" stroke="#002b4c"></path><path d="M405.6 71L349.6 63L396.6 92Z" fill="#073457" stroke="#073457"></path><path d="M395.6 0L349.6 63L405.6 71Z" fill="#002b4c" stroke="#002b4c"></path><path d="M195.8 529L249.7 600L249.7 522Z" fill="#1e4f78" stroke="#1e4f78"></path><path d="M783.1 414L767.2 380L674.2 443Z" fill="#032f51" stroke="#032f51"></path><path d="M728.2 348L778.1 355L720.2 312Z" fill="#0f3c61" stroke="#0f3c61"></path><path d="M760.2 251L719.2 171L669.2 257Z" fill="#134167" stroke="#134167"></path><path d="M702.2 600L724.2 520L666.2 524Z" fill="#134167" stroke="#134167"></path><path d="M717.2 499L763.2 479L674.2 443Z" fill="#002b4c" stroke="#002b4c"></path><path d="M162.8 265L131.9 319L192.8 291Z" fill="#0f3c61" stroke="#0f3c61"></path><path d="M164.8 373L130.8 429L180.8 470Z" fill="#255984" stroke="#255984"></path><path d="M127.9 524L177.8 569L195.8 529Z" fill="#1a4a72" stroke="#1a4a72"></path><path d="M632.3 67L575.4 64L603.3 125Z" fill="#17466d" stroke="#17466d"></path><path d="M557.4 71L575.4 64L544.4 68Z" fill="#1e4f78" stroke="#1e4f78"></path><path d="M544.4 68L465.5 37L494.4 113Z" fill="#1a4a72" stroke="#1a4a72"></path><path d="M489.5 0L465.5 37L544.4 68Z" fill="#032f51" stroke="#032f51"></path><path d="M228.8 76L259.7 93L295.7 33Z" fill="#032f51" stroke="#032f51"></path><path d="M302.6 94L259.7 93L325.6 136Z" fill="#0b385c" stroke="#0b385c"></path><path d="M162.8 265L82.9 284L131.9 319Z" fill="#17466d" stroke="#17466d"></path><path d="M409.5 0L453.5 32L489.5 0Z" fill="#073457" stroke="#073457"></path><path d="M465.5 37L453.5 32L405.6 71Z" fill="#1a4a72" stroke="#1a4a72"></path><path d="M115.9 418L130.8 429L164.8 373Z" fill="#1a4a72" stroke="#1a4a72"></path><path d="M760.2 251L686.2 294L720.2 312Z" fill="#0f3c61" stroke="#0f3c61"></path><path d="M648.3 123L632.3 67L603.3 125Z" fill="#002b4c" stroke="#002b4c"></path><path d="M786.1 283L760.2 251L720.2 312Z" fill="#0f3c61" stroke="#0f3c61"></path><path d="M809.1 371L778.1 355L767.2 380Z" fill="#0f3c61" stroke="#0f3c61"></path><path d="M767.2 380L778.1 355L728.2 348Z" fill="#0b385c" stroke="#0b385c"></path><path d="M707.2 143L663.2 105L648.3 123Z" fill="#22547e" stroke="#22547e"></path><path d="M115.9 418L126.9 435L130.8 429Z" fill="#1e4f78" stroke="#1e4f78"></path><path d="M130.8 429L126.9 435L180.8 470Z" fill="#134167" stroke="#134167"></path><path d="M259.7 93L213.8 122L272.7 180Z" fill="#1a4a72" stroke="#1a4a72"></path><path d="M228.8 76L211.8 122L213.8 122Z" fill="#1a4a72" stroke="#1a4a72"></path><path d="M213.8 122L168.8 171L233.8 211Z" fill="#1e4f78" stroke="#1e4f78"></path><path d="M743.2 165L707.2 143L719.2 171Z" fill="#0b385c" stroke="#0b385c"></path><path d="M719.2 171L707.2 143L650.3 212Z" fill="#255984" stroke="#255984"></path><path d="M751.2 513L763.2 479L717.2 499Z" fill="#1a4a72" stroke="#1a4a72"></path><path d="M211.8 122L168.8 171L213.8 122Z" fill="#17466d" stroke="#17466d"></path><path d="M769.1 470L783.1 414L674.2 443Z" fill="#1e4f78" stroke="#1e4f78"></path><path d="M86.9 373L115.9 418L164.8 373Z" fill="#134167" stroke="#134167"></path><path d="M763.2 479L769.1 470L674.2 443Z" fill="#1a4a72" stroke="#1a4a72"></path><path d="M724.2 520L751.2 513L717.2 499Z" fill="#002b4c" stroke="#002b4c"></path><path d="M763.2 479L822.1 487L769.1 470Z" fill="#032f51" stroke="#032f51"></path><path d="M773.2 600L751.2 513L724.2 520Z" fill="#134167" stroke="#134167"></path><path d="M666.2 53L632.3 67L663.2 105Z" fill="#032f51" stroke="#032f51"></path><path d="M663.2 105L632.3 67L648.3 123Z" fill="#0f3c61" stroke="#0f3c61"></path><path d="M489.5 0L453.5 32L465.5 37Z" fill="#002b4c" stroke="#002b4c"></path><path d="M127.9 524L195.8 529L180.8 470Z" fill="#002b4c" stroke="#002b4c"></path><path d="M195.8 529L204.8 600L249.7 600Z" fill="#1e4f78" stroke="#1e4f78"></path><path d="M127.9 524L180.8 470L126.9 435Z" fill="#22547e" stroke="#22547e"></path><path d="M177.8 569L204.8 600L195.8 529Z" fill="#032f51" stroke="#032f51"></path><path d="M788.1 277L786.1 283L828.1 338Z" fill="#073457" stroke="#073457"></path><path d="M778.1 355L786.1 283L720.2 312Z" fill="#032f51" stroke="#032f51"></path><path d="M753.2 174L743.2 165L719.2 171Z" fill="#1a4a72" stroke="#1a4a72"></path><path d="M127.9 118L148.8 184L168.8 171Z" fill="#1e4f78" stroke="#1e4f78"></path><path d="M168.8 171L148.8 184L233.8 211Z" fill="#255984" stroke="#255984"></path><path d="M131.9 319L91.9 357L164.8 373Z" fill="#002b4c" stroke="#002b4c"></path><path d="M828.1 338L786.1 283L778.1 355Z" fill="#0f3c61" stroke="#0f3c61"></path><path d="M786.1 283L788.1 277L760.2 251Z" fill="#22547e" stroke="#22547e"></path><path d="M148.8 184L123.9 229L162.8 265Z" fill="#073457" stroke="#073457"></path><path d="M640.3 600L702.2 600L666.2 524Z" fill="#002b4c" stroke="#002b4c"></path><path d="M753.2 174L719.2 171L760.2 251Z" fill="#0f3c61" stroke="#0f3c61"></path><path d="M731.2 70L666.2 53L663.2 105Z" fill="#1e4f78" stroke="#1e4f78"></path><path d="M812.1 215L753.2 174L760.2 251Z" fill="#0f3c61" stroke="#0f3c61"></path><path d="M82.9 284L91.9 357L131.9 319Z" fill="#134167" stroke="#134167"></path><path d="M295.7 33L259.7 93L302.6 94Z" fill="#1e4f78" stroke="#1e4f78"></path><path d="M259.7 93L228.8 76L213.8 122Z" fill="#1a4a72" stroke="#1a4a72"></path><path d="M211.8 122L179.8 118L168.8 171Z" fill="#0b385c" stroke="#0b385c"></path><path d="M295.7 33L302.6 94L349.6 63Z" fill="#002b4c" stroke="#002b4c"></path><path d="M395.6 0L295.7 33L349.6 63Z" fill="#17466d" stroke="#17466d"></path><path d="M841.1 469L809.1 371L783.1 414Z" fill="#073457" stroke="#073457"></path><path d="M783.1 414L809.1 371L767.2 380Z" fill="#1a4a72" stroke="#1a4a72"></path><path d="M489.5 0L544.4 68L564.4 0Z" fill="#22547e" stroke="#22547e"></path><path d="M453.5 32L409.5 0L405.6 71Z" fill="#1a4a72" stroke="#1a4a72"></path><path d="M564.4 0L544.4 68L575.4 64Z" fill="#0b385c" stroke="#0b385c"></path><path d="M67.9 272L82.9 284L123.9 229Z" fill="#17466d" stroke="#17466d"></path><path d="M228.8 76L179.8 118L211.8 122Z" fill="#134167" stroke="#134167"></path><path d="M83.9 517L127.9 524L126.9 435Z" fill="#0b385c" stroke="#0b385c"></path><path d="M177.8 569L128.8 600L204.8 600Z" fill="#1a4a72" stroke="#1a4a72"></path><path d="M69.9 428L126.9 435L115.9 418Z" fill="#1e4f78" stroke="#1e4f78"></path><path d="M409.5 0L395.6 0L405.6 71Z" fill="#255984" stroke="#255984"></path><path d="M40.9 394L86.9 373L91.9 357Z" fill="#0f3c61" stroke="#0f3c61"></path><path d="M91.9 357L86.9 373L164.8 373Z" fill="#17466d" stroke="#17466d"></path><path d="M67.9 272L123.9 229L80.9 174Z" fill="#22547e" stroke="#22547e"></path><path d="M123.9 229L82.9 284L162.8 265Z" fill="#073457" stroke="#073457"></path><path d="M731.2 70L663.2 105L707.2 143Z" fill="#0b385c" stroke="#0b385c"></path><path d="M565.4 0L564.4 0L575.4 64Z" fill="#032f51" stroke="#032f51"></path><path d="M731.2 70L707.2 143L782.1 129Z" fill="#073457" stroke="#073457"></path><path d="M565.4 0L575.4 64L602.3 0Z" fill="#073457" stroke="#073457"></path><path d="M602.3 0L575.4 64L632.3 67Z" fill="#134167" stroke="#134167"></path><path d="M809.1 371L828.1 338L778.1 355Z" fill="#1a4a72" stroke="#1a4a72"></path><path d="M788.1 277L812.1 215L760.2 251Z" fill="#22547e" stroke="#22547e"></path><path d="M900 366L828.1 338L900 383Z" fill="#17466d" stroke="#17466d"></path><path d="M841.1 469L783.1 414L769.1 470Z" fill="#17466d" stroke="#17466d"></path><path d="M40.9 394L69.9 428L86.9 373Z" fill="#255984" stroke="#255984"></path><path d="M86.9 373L69.9 428L115.9 418Z" fill="#073457" stroke="#073457"></path><path d="M661.2 0L602.3 0L632.3 67Z" fill="#134167" stroke="#134167"></path><path d="M846.1 204L812.1 215L873.1 301Z" fill="#0b385c" stroke="#0b385c"></path><path d="M753.2 174L782.1 129L743.2 165Z" fill="#17466d" stroke="#17466d"></path><path d="M80.9 174L123.9 229L148.8 184Z" fill="#032f51" stroke="#032f51"></path><path d="M0 312L0 358L91.9 357Z" fill="#22547e" stroke="#22547e"></path><path d="M295.7 33L259.7 0L228.8 76Z" fill="#073457" stroke="#073457"></path><path d="M152.8 64L127.9 118L179.8 118Z" fill="#17466d" stroke="#17466d"></path><path d="M395.6 0L288.6 0L295.7 33Z" fill="#0f3c61" stroke="#0f3c61"></path><path d="M820.1 522L763.2 479L751.2 513Z" fill="#255984" stroke="#255984"></path><path d="M820.1 522L822.1 487L763.2 479Z" fill="#1e4f78" stroke="#1e4f78"></path><path d="M812.1 215L807.1 184L753.2 174Z" fill="#002b4c" stroke="#002b4c"></path><path d="M69.9 428L83.9 517L126.9 435Z" fill="#17466d" stroke="#17466d"></path><path d="M127.9 524L128.8 600L177.8 569Z" fill="#0f3c61" stroke="#0f3c61"></path><path d="M152.8 64L179.8 118L228.8 76Z" fill="#22547e" stroke="#22547e"></path><path d="M179.8 118L127.9 118L168.8 171Z" fill="#002b4c" stroke="#002b4c"></path><path d="M79.9 600L128.8 600L127.9 524Z" fill="#134167" stroke="#134167"></path><path d="M782.1 129L707.2 143L743.2 165Z" fill="#1e4f78" stroke="#1e4f78"></path><path d="M666.2 53L661.2 0L632.3 67Z" fill="#134167" stroke="#134167"></path><path d="M807.1 184L782.1 129L753.2 174Z" fill="#134167" stroke="#134167"></path><path d="M702.2 600L773.2 600L724.2 520Z" fill="#0b385c" stroke="#0b385c"></path><path d="M288.6 0L259.7 0L295.7 33Z" fill="#032f51" stroke="#032f51"></path><path d="M773.2 600L820.1 522L751.2 513Z" fill="#0b385c" stroke="#0b385c"></path><path d="M876.1 474L841.1 469L822.1 487Z" fill="#0f3c61" stroke="#0f3c61"></path><path d="M822.1 487L841.1 469L769.1 470Z" fill="#032f51" stroke="#032f51"></path><path d="M0 358L40.9 394L91.9 357Z" fill="#0b385c" stroke="#0b385c"></path><path d="M22.9 478L54.9 527L83.9 517Z" fill="#17466d" stroke="#17466d"></path><path d="M83.9 138L80.9 174L148.8 184Z" fill="#073457" stroke="#073457"></path><path d="M0 312L91.9 357L82.9 284Z" fill="#1e4f78" stroke="#1e4f78"></path><path d="M812.1 215L827.1 192L807.1 184Z" fill="#1e4f78" stroke="#1e4f78"></path><path d="M807.1 184L859.1 159L782.1 129Z" fill="#073457" stroke="#073457"></path><path d="M846.1 204L827.1 192L812.1 215Z" fill="#134167" stroke="#134167"></path><path d="M812.1 215L788.1 277L873.1 301Z" fill="#1a4a72" stroke="#1a4a72"></path><path d="M259.7 0L237.8 0L228.8 76Z" fill="#1e4f78" stroke="#1e4f78"></path><path d="M730.2 40L661.2 0L666.2 53Z" fill="#073457" stroke="#073457"></path><path d="M183.8 0L152.8 64L228.8 76Z" fill="#22547e" stroke="#22547e"></path><path d="M127.9 118L83.9 138L148.8 184Z" fill="#1a4a72" stroke="#1a4a72"></path><path d="M786.1 45L730.2 40L731.2 70Z" fill="#1a4a72" stroke="#1a4a72"></path><path d="M731.2 70L730.2 40L666.2 53Z" fill="#0b385c" stroke="#0b385c"></path><path d="M786.1 45L731.2 70L782.1 129Z" fill="#002b4c" stroke="#002b4c"></path><path d="M873.1 301L788.1 277L828.1 338Z" fill="#032f51" stroke="#032f51"></path><path d="M827.1 192L859.1 159L807.1 184Z" fill="#032f51" stroke="#032f51"></path><path d="M95.9 114L83.9 138L127.9 118Z" fill="#1a4a72" stroke="#1a4a72"></path><path d="M80.9 174L44.9 180L67.9 272Z" fill="#17466d" stroke="#17466d"></path><path d="M900 366L873.1 301L828.1 338Z" fill="#0f3c61" stroke="#0f3c61"></path><path d="M22.9 478L83.9 517L69.9 428Z" fill="#134167" stroke="#134167"></path><path d="M83.9 517L79.9 600L127.9 524Z" fill="#255984" stroke="#255984"></path><path d="M132.9 65L95.9 114L127.9 118Z" fill="#22547e" stroke="#22547e"></path><path d="M116.9 0L132.9 65L152.8 64Z" fill="#0b385c" stroke="#0b385c"></path><path d="M152.8 64L132.9 65L127.9 118Z" fill="#0f3c61" stroke="#0f3c61"></path><path d="M773.2 600L814.1 600L820.1 522Z" fill="#255984" stroke="#255984"></path><path d="M820.1 522L876.1 474L822.1 487Z" fill="#134167" stroke="#134167"></path><path d="M54.9 527L79.9 600L83.9 517Z" fill="#032f51" stroke="#032f51"></path><path d="M0 227L44.9 180L0 163Z" fill="#17466d" stroke="#17466d"></path><path d="M0 163L44.9 180L0 117Z" fill="#1a4a72" stroke="#1a4a72"></path><path d="M83.9 138L44.9 180L80.9 174Z" fill="#255984" stroke="#255984"></path><path d="M884.1 534L876.1 474L820.1 522Z" fill="#17466d" stroke="#17466d"></path><path d="M900 383L828.1 338L809.1 371Z" fill="#073457" stroke="#073457"></path><path d="M0 430L69.9 428L40.9 394Z" fill="#0f3c61" stroke="#0f3c61"></path><path d="M0 430L22.9 478L69.9 428Z" fill="#032f51" stroke="#032f51"></path><path d="M54.9 527L44.9 600L79.9 600Z" fill="#0f3c61" stroke="#0f3c61"></path><path d="M237.8 0L183.8 0L228.8 76Z" fill="#032f51" stroke="#032f51"></path><path d="M0 312L82.9 284L67.9 272Z" fill="#255984" stroke="#255984"></path><path d="M900 383L809.1 371L900 419Z" fill="#17466d" stroke="#17466d"></path><path d="M900 186L859.1 159L846.1 204Z" fill="#0b385c" stroke="#0b385c"></path><path d="M900 419L809.1 371L841.1 469Z" fill="#22547e" stroke="#22547e"></path><path d="M0 227L0 312L67.9 272Z" fill="#1a4a72" stroke="#1a4a72"></path><path d="M0 358L0 405L40.9 394Z" fill="#1e4f78" stroke="#1e4f78"></path><path d="M876.1 474L900 419L841.1 469Z" fill="#0f3c61" stroke="#0f3c61"></path><path d="M0 405L0 430L40.9 394Z" fill="#1a4a72" stroke="#1a4a72"></path><path d="M22.9 478L0 536L54.9 527Z" fill="#002b4c" stroke="#002b4c"></path><path d="M900 278L846.1 204L873.1 301Z" fill="#073457" stroke="#073457"></path><path d="M846.1 204L859.1 159L827.1 192Z" fill="#17466d" stroke="#17466d"></path><path d="M900 366L900 283L873.1 301Z" fill="#255984" stroke="#255984"></path><path d="M900 283L900 278L873.1 301Z" fill="#17466d" stroke="#17466d"></path><path d="M828.1 86L786.1 45L782.1 129Z" fill="#1e4f78" stroke="#1e4f78"></path><path d="M730.2 40L769.2 0L661.2 0Z" fill="#0f3c61" stroke="#0f3c61"></path><path d="M859.1 159L828.1 86L782.1 129Z" fill="#073457" stroke="#073457"></path><path d="M0 430L0 485L22.9 478Z" fill="#0f3c61" stroke="#0f3c61"></path><path d="M44.9 180L0 227L67.9 272Z" fill="#002b4c" stroke="#002b4c"></path><path d="M44.9 180L83.9 138L15.9 102Z" fill="#22547e" stroke="#22547e"></path><path d="M15.9 102L95.9 114L77.9 17Z" fill="#0b385c" stroke="#0b385c"></path><path d="M853.1 600L884.1 534L820.1 522Z" fill="#255984" stroke="#255984"></path><path d="M876.1 474L900 529L900 419Z" fill="#255984" stroke="#255984"></path><path d="M814.1 600L853.1 600L820.1 522Z" fill="#22547e" stroke="#22547e"></path><path d="M0 536L44.9 600L54.9 527Z" fill="#255984" stroke="#255984"></path><path d="M803.1 0L769.2 0L786.1 45Z" fill="#22547e" stroke="#22547e"></path><path d="M786.1 45L769.2 0L730.2 40Z" fill="#255984" stroke="#255984"></path><path d="M859.1 159L844.1 83L828.1 86Z" fill="#1e4f78" stroke="#1e4f78"></path><path d="M828.1 86L844.1 83L786.1 45Z" fill="#1a4a72" stroke="#1a4a72"></path><path d="M900 101L844.1 83L859.1 159Z" fill="#073457" stroke="#073457"></path><path d="M900 531L900 529L884.1 534Z" fill="#1a4a72" stroke="#1a4a72"></path><path d="M884.1 534L900 529L876.1 474Z" fill="#032f51" stroke="#032f51"></path><path d="M900 278L900 186L846.1 204Z" fill="#1a4a72" stroke="#1a4a72"></path><path d="M900 600L900 531L884.1 534Z" fill="#032f51" stroke="#032f51"></path><path d="M0 485L0 536L22.9 478Z" fill="#17466d" stroke="#17466d"></path><path d="M183.8 0L116.9 0L152.8 64Z" fill="#1e4f78" stroke="#1e4f78"></path><path d="M900 186L900 169L859.1 159Z" fill="#134167" stroke="#134167"></path><path d="M15.9 102L83.9 138L95.9 114Z" fill="#255984" stroke="#255984"></path><path d="M77.9 17L95.9 114L132.9 65Z" fill="#17466d" stroke="#17466d"></path><path d="M836.1 0L803.1 0L786.1 45Z" fill="#002b4c" stroke="#002b4c"></path><path d="M836.1 0L786.1 45L844.1 83Z" fill="#255984" stroke="#255984"></path><path d="M116.9 0L77.9 17L132.9 65Z" fill="#134167" stroke="#134167"></path><path d="M0 78L0 117L15.9 102Z" fill="#0b385c" stroke="#0b385c"></path><path d="M15.9 102L0 117L44.9 180Z" fill="#1e4f78" stroke="#1e4f78"></path><path d="M0 536L0 600L44.9 600Z" fill="#073457" stroke="#073457"></path><path d="M853.1 600L900 600L884.1 534Z" fill="#255984" stroke="#255984"></path><path d="M116.9 0L79.9 0L77.9 17Z" fill="#22547e" stroke="#22547e"></path><path d="M0 58L0 78L15.9 102Z" fill="#0b385c" stroke="#0b385c"></path><path d="M900 169L900 101L859.1 159Z" fill="#134167" stroke="#134167"></path><path d="M900 20L836.1 0L844.1 83Z" fill="#1a4a72" stroke="#1a4a72"></path><path d="M0 58L15.9 102L77.9 17Z" fill="#22547e" stroke="#22547e"></path><path d="M0 0L0 58L77.9 17Z" fill="#0f3c61" stroke="#0f3c61"></path><path d="M900 101L900 20L844.1 83Z" fill="#1e4f78" stroke="#1e4f78"></path><path d="M79.9 0L0 0L77.9 17Z" fill="#17466d" stroke="#17466d"></path><path d="M900 20L900 0L836.1 0Z" fill="#002b4c" stroke="#002b4c"></path></g></svg>