<svg id="visual" viewBox="0 0 900 600" width="900" height="600" xmlns="http://www.w3.org/2000/svg" xmlns:xlink="http://www.w3.org/1999/xlink" version="1.1"><g stroke-width="1" stroke-linejoin="bevel"><path d="M444.5 312L459.5 352L490.5 325Z" fill="#1e4f78" stroke="#1e4f78"></path><path d="M444.5 312L419.5 372L459.5 352Z" fill="#22547e" stroke="#22547e"></path><path d="M444.5 312L401.6 316L419.5 372Z" fill="#1e4f78" stroke="#1e4f78"></path><path d="M512.4 401L490.5 325L459.5 352Z" fill="#134167" stroke="#134167"></path><path d="M512.4 401L546.4 352L490.5 325Z" fill="#0b385c" stroke="#0b385c"></path><path d="M507.5 423L512.4 401L432.5 429Z" fill="#032f51" stroke="#032f51"></path><path d="M444.5 312L381.6 298L401.6 316Z" fill="#073457" stroke="#073457"></path><path d="M401.6 316L351.6 380L419.5 372Z" fill="#032f51" stroke="#032f51"></path><path d="M546.4 277L532.4 262L490.5 325Z" fill="#0b385c" stroke="#0b385c"></path><path d="M490.5 325L450.5 231L444.5 312Z" fill="#032f51" stroke="#032f51"></path><path d="M444.5 312L434.5 232L381.6 298Z" fill="#0f3c61" stroke="#0f3c61"></path><path d="M546.4 352L546.4 277L490.5 325Z" fill="#1a4a72" stroke="#1a4a72"></path><path d="M532.4 262L450.5 231L490.5 325Z" fill="#0f3c61" stroke="#0f3c61"></path><path d="M450.5 231L434.5 232L444.5 312Z" fill="#134167" stroke="#134167"></path><path d="M432.5 429L512.4 401L459.5 352Z" fill="#073457" stroke="#073457"></path><path d="M512.4 401L584.4 364L546.4 352Z" fill="#134167" stroke="#134167"></path><path d="M532.4 262L456.5 222L450.5 231Z" fill="#0f3c61" stroke="#0f3c61"></path><path d="M450.5 231L441.5 214L434.5 232Z" fill="#073457" stroke="#073457"></path><path d="M380.6 434L432.5 429L419.5 372Z" fill="#134167" stroke="#134167"></path><path d="M419.5 372L432.5 429L459.5 352Z" fill="#0f3c61" stroke="#0f3c61"></path><path d="M497.4 207L441.5 214L456.5 222Z" fill="#1a4a72" stroke="#1a4a72"></path><path d="M456.5 222L441.5 214L450.5 231Z" fill="#255984" stroke="#255984"></path><path d="M434.5 232L342.6 249L381.6 298Z" fill="#1e4f78" stroke="#1e4f78"></path><path d="M584.4 364L587.4 322L546.4 352Z" fill="#0b385c" stroke="#0b385c"></path><path d="M546.4 352L587.4 322L546.4 277Z" fill="#073457" stroke="#073457"></path><path d="M576.4 240L497.4 207L532.4 262Z" fill="#032f51" stroke="#032f51"></path><path d="M532.4 262L497.4 207L456.5 222Z" fill="#002b4c" stroke="#002b4c"></path><path d="M576.4 240L532.4 262L546.4 277Z" fill="#1a4a72" stroke="#1a4a72"></path><path d="M573.4 444L584.4 364L512.4 401Z" fill="#032f51" stroke="#032f51"></path><path d="M381.6 298L351.6 380L401.6 316Z" fill="#255984" stroke="#255984"></path><path d="M351.6 380L373.6 427L419.5 372Z" fill="#1a4a72" stroke="#1a4a72"></path><path d="M373.6 427L380.6 434L419.5 372Z" fill="#17466d" stroke="#17466d"></path><path d="M432.5 429L443.5 465L507.5 423Z" fill="#073457" stroke="#073457"></path><path d="M380.6 434L443.5 465L432.5 429Z" fill="#0b385c" stroke="#0b385c"></path><path d="M605.3 254L576.4 240L546.4 277Z" fill="#073457" stroke="#073457"></path><path d="M339.6 228L342.6 249L434.5 232Z" fill="#073457" stroke="#073457"></path><path d="M381.6 298L280.6 335L351.6 380Z" fill="#134167" stroke="#134167"></path><path d="M584.4 364L610.4 326L587.4 322Z" fill="#073457" stroke="#073457"></path><path d="M587.4 322L605.3 254L546.4 277Z" fill="#1a4a72" stroke="#1a4a72"></path><path d="M457.5 490L536.4 457L507.5 423Z" fill="#134167" stroke="#134167"></path><path d="M507.5 423L573.4 444L512.4 401Z" fill="#1a4a72" stroke="#1a4a72"></path><path d="M584.4 364L642.3 331L610.4 326Z" fill="#002b4c" stroke="#002b4c"></path><path d="M390.6 502L444.5 478L443.5 465Z" fill="#17466d" stroke="#17466d"></path><path d="M443.5 465L457.5 490L507.5 423Z" fill="#1a4a72" stroke="#1a4a72"></path><path d="M610.4 326L605.3 254L587.4 322Z" fill="#255984" stroke="#255984"></path><path d="M536.4 457L573.4 444L507.5 423Z" fill="#22547e" stroke="#22547e"></path><path d="M346.6 198L339.6 228L434.5 232Z" fill="#0f3c61" stroke="#0f3c61"></path><path d="M342.6 249L280.6 335L381.6 298Z" fill="#0f3c61" stroke="#0f3c61"></path><path d="M390.6 502L457.5 490L444.5 478Z" fill="#032f51" stroke="#032f51"></path><path d="M444.5 478L457.5 490L443.5 465Z" fill="#073457" stroke="#073457"></path><path d="M536.4 457L549.4 475L573.4 444Z" fill="#22547e" stroke="#22547e"></path><path d="M576.4 240L506.4 167L497.4 207Z" fill="#17466d" stroke="#17466d"></path><path d="M497.4 207L453.5 147L441.5 214Z" fill="#134167" stroke="#134167"></path><path d="M441.5 214L346.6 198L434.5 232Z" fill="#255984" stroke="#255984"></path><path d="M600.4 203L506.4 167L576.4 240Z" fill="#22547e" stroke="#22547e"></path><path d="M497.4 526L549.4 475L536.4 457Z" fill="#17466d" stroke="#17466d"></path><path d="M453.5 147L346.6 198L441.5 214Z" fill="#032f51" stroke="#032f51"></path><path d="M662.3 366L642.3 331L584.4 364Z" fill="#0f3c61" stroke="#0f3c61"></path><path d="M610.4 326L669.2 278L605.3 254Z" fill="#134167" stroke="#134167"></path><path d="M506.4 167L453.5 147L497.4 207Z" fill="#1e4f78" stroke="#1e4f78"></path><path d="M346.6 198L320.6 215L339.6 228Z" fill="#1a4a72" stroke="#1a4a72"></path><path d="M339.6 228L320.6 215L342.6 249Z" fill="#255984" stroke="#255984"></path><path d="M610.3 196L600.4 203L605.3 254Z" fill="#0b385c" stroke="#0b385c"></path><path d="M605.3 254L600.4 203L576.4 240Z" fill="#22547e" stroke="#22547e"></path><path d="M275.7 333L280.6 335L284.7 232Z" fill="#1a4a72" stroke="#1a4a72"></path><path d="M282.6 427L344.6 473L373.6 427Z" fill="#22547e" stroke="#22547e"></path><path d="M373.6 427L344.6 473L380.6 434Z" fill="#17466d" stroke="#17466d"></path><path d="M282.6 427L373.6 427L351.6 380Z" fill="#255984" stroke="#255984"></path><path d="M380.6 434L390.6 502L443.5 465Z" fill="#032f51" stroke="#032f51"></path><path d="M284.7 232L280.6 335L342.6 249Z" fill="#17466d" stroke="#17466d"></path><path d="M280.6 335L282.6 427L351.6 380Z" fill="#1e4f78" stroke="#1e4f78"></path><path d="M344.6 473L390.6 502L380.6 434Z" fill="#0f3c61" stroke="#0f3c61"></path><path d="M457.5 490L497.4 526L536.4 457Z" fill="#1a4a72" stroke="#1a4a72"></path><path d="M506.4 167L455.5 137L453.5 147Z" fill="#134167" stroke="#134167"></path><path d="M348.6 137L326.6 172L346.6 198Z" fill="#073457" stroke="#073457"></path><path d="M481.5 112L455.5 137L506.4 167Z" fill="#1a4a72" stroke="#1a4a72"></path><path d="M675.2 219L610.3 196L605.3 254Z" fill="#17466d" stroke="#17466d"></path><path d="M600.4 203L606.4 141L506.4 167Z" fill="#1a4a72" stroke="#1a4a72"></path><path d="M660.3 420L642.3 411L672.2 479Z" fill="#17466d" stroke="#17466d"></path><path d="M573.4 444L642.3 411L584.4 364Z" fill="#17466d" stroke="#17466d"></path><path d="M642.3 411L662.3 366L584.4 364Z" fill="#1a4a72" stroke="#1a4a72"></path><path d="M642.3 331L669.2 278L610.4 326Z" fill="#1e4f78" stroke="#1e4f78"></path><path d="M444.5 545L497.4 526L457.5 490Z" fill="#0b385c" stroke="#0b385c"></path><path d="M672.2 479L642.3 411L573.4 444Z" fill="#002b4c" stroke="#002b4c"></path><path d="M326.6 172L284.7 232L320.6 215Z" fill="#22547e" stroke="#22547e"></path><path d="M320.6 215L284.7 232L342.6 249Z" fill="#0f3c61" stroke="#0f3c61"></path><path d="M326.6 172L320.6 215L346.6 198Z" fill="#1a4a72" stroke="#1a4a72"></path><path d="M348.6 137L346.6 198L453.5 147Z" fill="#255984" stroke="#255984"></path><path d="M240.7 370L282.6 427L280.6 335Z" fill="#17466d" stroke="#17466d"></path><path d="M700.2 339L669.2 278L642.3 331Z" fill="#134167" stroke="#134167"></path><path d="M344.6 473L371.6 518L390.6 502Z" fill="#1a4a72" stroke="#1a4a72"></path><path d="M390.6 502L444.5 545L457.5 490Z" fill="#002b4c" stroke="#002b4c"></path><path d="M331.6 519L371.6 518L344.6 473Z" fill="#0f3c61" stroke="#0f3c61"></path><path d="M488.5 97L481.5 112L506.4 167Z" fill="#255984" stroke="#255984"></path><path d="M455.5 137L348.6 137L453.5 147Z" fill="#1a4a72" stroke="#1a4a72"></path><path d="M601.3 530L573.4 444L549.4 475Z" fill="#0b385c" stroke="#0b385c"></path><path d="M642.3 411L660.3 420L662.3 366Z" fill="#032f51" stroke="#032f51"></path><path d="M662.3 366L700.2 339L642.3 331Z" fill="#17466d" stroke="#17466d"></path><path d="M371.6 518L390.5 531L390.6 502Z" fill="#255984" stroke="#255984"></path><path d="M390.5 531L444.5 545L390.6 502Z" fill="#032f51" stroke="#032f51"></path><path d="M549.4 560L551.4 532L497.4 526Z" fill="#073457" stroke="#073457"></path><path d="M497.4 526L551.4 532L549.4 475Z" fill="#1a4a72" stroke="#1a4a72"></path><path d="M335.6 104L348.6 137L423.5 70Z" fill="#17466d" stroke="#17466d"></path><path d="M240.8 167L254.7 245L284.7 232Z" fill="#1e4f78" stroke="#1e4f78"></path><path d="M240.8 167L284.7 232L326.6 172Z" fill="#255984" stroke="#255984"></path><path d="M284.7 232L254.7 245L275.7 333Z" fill="#1e4f78" stroke="#1e4f78"></path><path d="M275.7 333L240.7 370L280.6 335Z" fill="#0b385c" stroke="#0b385c"></path><path d="M191.8 282L240.7 370L275.7 333Z" fill="#0f3c61" stroke="#0f3c61"></path><path d="M606.4 141L488.5 97L506.4 167Z" fill="#032f51" stroke="#032f51"></path><path d="M457.5 66L423.5 70L455.5 137Z" fill="#134167" stroke="#134167"></path><path d="M619.4 130L606.4 141L656.3 151Z" fill="#0b385c" stroke="#0b385c"></path><path d="M610.3 196L606.4 141L600.4 203Z" fill="#002b4c" stroke="#002b4c"></path><path d="M371.6 518L338.6 527L390.5 531Z" fill="#0b385c" stroke="#0b385c"></path><path d="M400.5 600L459.5 577L444.5 545Z" fill="#255984" stroke="#255984"></path><path d="M298.7 519L331.6 519L344.6 473Z" fill="#134167" stroke="#134167"></path><path d="M268.7 474L344.6 473L282.6 427Z" fill="#134167" stroke="#134167"></path><path d="M240.7 370L248.7 419L282.6 427Z" fill="#002b4c" stroke="#002b4c"></path><path d="M692.2 408L700.2 339L662.3 366Z" fill="#255984" stroke="#255984"></path><path d="M669.2 278L675.2 219L605.3 254Z" fill="#17466d" stroke="#17466d"></path><path d="M188.8 368L235.7 383L240.7 370Z" fill="#134167" stroke="#134167"></path><path d="M240.7 370L235.7 383L248.7 419Z" fill="#0b385c" stroke="#0b385c"></path><path d="M695.2 273L675.2 219L669.2 278Z" fill="#22547e" stroke="#22547e"></path><path d="M700.2 339L695.2 273L669.2 278Z" fill="#1e4f78" stroke="#1e4f78"></path><path d="M331.6 519L338.6 527L371.6 518Z" fill="#002b4c" stroke="#002b4c"></path><path d="M689.2 469L692.2 408L660.3 420Z" fill="#1e4f78" stroke="#1e4f78"></path><path d="M660.3 420L692.2 408L662.3 366Z" fill="#17466d" stroke="#17466d"></path><path d="M549.4 560L601.3 530L551.4 532Z" fill="#1a4a72" stroke="#1a4a72"></path><path d="M551.4 532L601.3 530L549.4 475Z" fill="#255984" stroke="#255984"></path><path d="M236.8 443L268.7 474L282.6 427Z" fill="#0f3c61" stroke="#0f3c61"></path><path d="M331.6 519L298.7 519L338.6 527Z" fill="#22547e" stroke="#22547e"></path><path d="M475.5 600L549.4 560L497.4 526Z" fill="#255984" stroke="#255984"></path><path d="M400.5 600L444.5 545L390.5 531Z" fill="#1e4f78" stroke="#1e4f78"></path><path d="M444.5 545L459.5 577L497.4 526Z" fill="#002b4c" stroke="#002b4c"></path><path d="M656.3 151L606.4 141L610.3 196Z" fill="#255984" stroke="#255984"></path><path d="M606.4 141L505.4 66L488.5 97Z" fill="#1a4a72" stroke="#1a4a72"></path><path d="M692.2 408L716.2 339L700.2 339Z" fill="#0b385c" stroke="#0b385c"></path><path d="M700.2 339L716.2 339L695.2 273Z" fill="#134167" stroke="#134167"></path><path d="M268.7 474L298.7 519L344.6 473Z" fill="#17466d" stroke="#17466d"></path><path d="M400.5 600L475.5 600L459.5 577Z" fill="#22547e" stroke="#22547e"></path><path d="M248.7 419L236.8 443L282.6 427Z" fill="#1e4f78" stroke="#1e4f78"></path><path d="M268.7 474L244.8 492L298.7 519Z" fill="#22547e" stroke="#22547e"></path><path d="M217.8 430L236.8 443L248.7 419Z" fill="#0b385c" stroke="#0b385c"></path><path d="M601.3 530L672.2 479L573.4 444Z" fill="#1a4a72" stroke="#1a4a72"></path><path d="M692.2 408L776.1 391L716.2 339Z" fill="#17466d" stroke="#17466d"></path><path d="M423.5 70L348.6 137L455.5 137Z" fill="#134167" stroke="#134167"></path><path d="M348.6 137L335.6 104L326.6 172Z" fill="#032f51" stroke="#032f51"></path><path d="M659.2 153L610.3 196L675.2 219Z" fill="#17466d" stroke="#17466d"></path><path d="M659.2 153L656.3 151L610.3 196Z" fill="#0f3c61" stroke="#0f3c61"></path><path d="M457.5 66L481.5 112L488.5 97Z" fill="#0b385c" stroke="#0b385c"></path><path d="M457.5 66L455.5 137L481.5 112Z" fill="#073457" stroke="#073457"></path><path d="M707.2 224L659.2 153L675.2 219Z" fill="#0f3c61" stroke="#0f3c61"></path><path d="M707.2 224L675.2 219L695.2 273Z" fill="#134167" stroke="#134167"></path><path d="M505.4 66L457.5 66L488.5 97Z" fill="#17466d" stroke="#17466d"></path><path d="M549.4 560L612.3 545L601.3 530Z" fill="#17466d" stroke="#17466d"></path><path d="M601.3 530L612.3 545L672.2 479Z" fill="#134167" stroke="#134167"></path><path d="M784.1 290L707.2 224L695.2 273Z" fill="#073457" stroke="#073457"></path><path d="M624.3 93L505.4 66L606.4 141Z" fill="#1a4a72" stroke="#1a4a72"></path><path d="M711.2 460L689.2 469L712.2 535Z" fill="#0f3c61" stroke="#0f3c61"></path><path d="M672.2 479L689.2 469L660.3 420Z" fill="#0b385c" stroke="#0b385c"></path><path d="M235.7 383L217.8 430L248.7 419Z" fill="#1e4f78" stroke="#1e4f78"></path><path d="M236.8 443L244.8 492L268.7 474Z" fill="#0b385c" stroke="#0b385c"></path><path d="M174.8 413L217.8 430L235.7 383Z" fill="#073457" stroke="#073457"></path><path d="M400.5 600L390.5 531L394.6 600Z" fill="#255984" stroke="#255984"></path><path d="M459.5 577L475.5 600L497.4 526Z" fill="#255984" stroke="#255984"></path><path d="M549.4 560L562.4 600L612.3 545Z" fill="#0b385c" stroke="#0b385c"></path><path d="M217.8 430L244.8 492L236.8 443Z" fill="#032f51" stroke="#032f51"></path><path d="M240.7 156L240.8 167L326.6 172Z" fill="#22547e" stroke="#22547e"></path><path d="M254.7 245L191.8 282L275.7 333Z" fill="#032f51" stroke="#032f51"></path><path d="M205.8 228L195.8 268L254.7 245Z" fill="#073457" stroke="#073457"></path><path d="M195.8 268L191.8 282L254.7 245Z" fill="#1e4f78" stroke="#1e4f78"></path><path d="M240.8 167L205.8 228L254.7 245Z" fill="#17466d" stroke="#17466d"></path><path d="M195.8 268L176.8 281L191.8 282Z" fill="#073457" stroke="#073457"></path><path d="M178.8 356L188.8 368L240.7 370Z" fill="#134167" stroke="#134167"></path><path d="M217.8 430L164.8 516L244.8 492Z" fill="#134167" stroke="#134167"></path><path d="M703.2 535L689.2 469L672.2 479Z" fill="#032f51" stroke="#032f51"></path><path d="M689.2 469L711.2 460L692.2 408Z" fill="#255984" stroke="#255984"></path><path d="M394.6 600L338.6 527L316.6 600Z" fill="#073457" stroke="#073457"></path><path d="M394.6 600L390.5 531L338.6 527Z" fill="#073457" stroke="#073457"></path><path d="M316.6 600L338.6 527L298.7 519Z" fill="#255984" stroke="#255984"></path><path d="M265.7 96L240.7 156L326.6 172Z" fill="#0b385c" stroke="#0b385c"></path><path d="M132.8 153L122.8 207L205.8 228Z" fill="#032f51" stroke="#032f51"></path><path d="M656.3 151L624.3 93L619.4 130Z" fill="#1e4f78" stroke="#1e4f78"></path><path d="M619.4 130L624.3 93L606.4 141Z" fill="#255984" stroke="#255984"></path><path d="M721.2 103L624.3 93L656.3 151Z" fill="#22547e" stroke="#22547e"></path><path d="M605.3 45L624.3 93L614.4 46Z" fill="#0b385c" stroke="#0b385c"></path><path d="M475.5 600L547.4 600L549.4 560Z" fill="#1a4a72" stroke="#1a4a72"></path><path d="M776.1 391L750.2 311L716.2 339Z" fill="#17466d" stroke="#17466d"></path><path d="M716.2 339L750.2 311L695.2 273Z" fill="#22547e" stroke="#22547e"></path><path d="M191.8 282L178.8 356L240.7 370Z" fill="#134167" stroke="#134167"></path><path d="M188.8 368L174.8 413L235.7 383Z" fill="#1e4f78" stroke="#1e4f78"></path><path d="M423.5 70L349.6 62L335.6 104Z" fill="#1a4a72" stroke="#1a4a72"></path><path d="M335.6 104L265.7 96L326.6 172Z" fill="#1a4a72" stroke="#1a4a72"></path><path d="M405.6 0L349.6 62L423.5 70Z" fill="#073457" stroke="#073457"></path><path d="M430.5 0L423.5 70L457.5 66Z" fill="#1e4f78" stroke="#1e4f78"></path><path d="M547.4 600L562.4 600L549.4 560Z" fill="#1e4f78" stroke="#1e4f78"></path><path d="M612.3 545L703.2 535L672.2 479Z" fill="#1e4f78" stroke="#1e4f78"></path><path d="M163.8 269L176.8 281L195.8 268Z" fill="#22547e" stroke="#22547e"></path><path d="M191.8 282L176.8 281L178.8 356Z" fill="#17466d" stroke="#17466d"></path><path d="M163.8 269L195.8 268L205.8 228Z" fill="#073457" stroke="#073457"></path><path d="M769.1 448L738.2 435L763.1 475Z" fill="#002b4c" stroke="#002b4c"></path><path d="M711.2 460L738.2 435L692.2 408Z" fill="#1e4f78" stroke="#1e4f78"></path><path d="M349.6 62L311.6 72L335.6 104Z" fill="#22547e" stroke="#22547e"></path><path d="M117.9 367L174.8 413L178.8 356Z" fill="#1e4f78" stroke="#1e4f78"></path><path d="M178.8 356L174.8 413L188.8 368Z" fill="#134167" stroke="#134167"></path><path d="M311.6 72L265.7 96L335.6 104Z" fill="#17466d" stroke="#17466d"></path><path d="M125.9 246L163.8 269L205.8 228Z" fill="#22547e" stroke="#22547e"></path><path d="M125.9 246L205.8 228L122.8 207Z" fill="#0f3c61" stroke="#0f3c61"></path><path d="M176.8 281L118.9 290L178.8 356Z" fill="#032f51" stroke="#032f51"></path><path d="M284.7 600L298.7 519L244.8 492Z" fill="#0f3c61" stroke="#0f3c61"></path><path d="M284.7 600L316.6 600L298.7 519Z" fill="#17466d" stroke="#17466d"></path><path d="M605.3 45L553.4 27L505.4 66Z" fill="#032f51" stroke="#032f51"></path><path d="M500.5 0L430.5 0L457.5 66Z" fill="#073457" stroke="#073457"></path><path d="M614.4 46L624.3 93L684.2 36Z" fill="#255984" stroke="#255984"></path><path d="M624.3 93L605.3 45L505.4 66Z" fill="#002b4c" stroke="#002b4c"></path><path d="M668.3 600L703.2 535L612.3 545Z" fill="#073457" stroke="#073457"></path><path d="M769.1 448L776.1 391L738.2 435Z" fill="#0b385c" stroke="#0b385c"></path><path d="M738.2 435L776.1 391L692.2 408Z" fill="#002b4c" stroke="#002b4c"></path><path d="M721.2 103L656.3 151L659.2 153Z" fill="#0f3c61" stroke="#0f3c61"></path><path d="M603.3 0L552.4 0L553.4 27Z" fill="#17466d" stroke="#17466d"></path><path d="M829.1 367L784.1 290L750.2 311Z" fill="#134167" stroke="#134167"></path><path d="M750.2 311L784.1 290L695.2 273Z" fill="#22547e" stroke="#22547e"></path><path d="M707.2 224L721.2 103L659.2 153Z" fill="#073457" stroke="#073457"></path><path d="M715.2 600L712.2 535L703.2 535Z" fill="#1e4f78" stroke="#1e4f78"></path><path d="M703.2 535L712.2 535L689.2 469Z" fill="#1a4a72" stroke="#1a4a72"></path><path d="M311.6 72L276.7 62L265.7 96Z" fill="#17466d" stroke="#17466d"></path><path d="M265.7 96L219.8 82L240.7 156Z" fill="#073457" stroke="#073457"></path><path d="M317.6 21L276.7 62L311.6 72Z" fill="#002b4c" stroke="#002b4c"></path><path d="M317.6 21L311.6 72L349.6 62Z" fill="#0f3c61" stroke="#0f3c61"></path><path d="M181.8 561L284.7 600L244.8 492Z" fill="#1e4f78" stroke="#1e4f78"></path><path d="M763.1 475L738.2 435L711.2 460Z" fill="#22547e" stroke="#22547e"></path><path d="M500.5 0L457.5 66L505.4 66Z" fill="#1a4a72" stroke="#1a4a72"></path><path d="M552.4 0L500.5 0L553.4 27Z" fill="#0f3c61" stroke="#0f3c61"></path><path d="M553.4 27L500.5 0L505.4 66Z" fill="#17466d" stroke="#17466d"></path><path d="M784.1 290L776.2 213L707.2 224Z" fill="#17466d" stroke="#17466d"></path><path d="M430.5 0L405.6 0L423.5 70Z" fill="#1a4a72" stroke="#1a4a72"></path><path d="M712.2 535L763.1 475L711.2 460Z" fill="#002b4c" stroke="#002b4c"></path><path d="M603.3 0L553.4 27L605.3 45Z" fill="#17466d" stroke="#17466d"></path><path d="M334.6 0L317.6 21L349.6 62Z" fill="#073457" stroke="#073457"></path><path d="M562.4 600L668.3 600L612.3 545Z" fill="#002b4c" stroke="#002b4c"></path><path d="M712.2 535L774.2 501L763.1 475Z" fill="#17466d" stroke="#17466d"></path><path d="M766.2 120L721.2 103L707.2 224Z" fill="#002b4c" stroke="#002b4c"></path><path d="M613.4 0L603.3 0L605.3 45Z" fill="#1a4a72" stroke="#1a4a72"></path><path d="M821.1 269L802.1 271L784.1 290Z" fill="#032f51" stroke="#032f51"></path><path d="M784.1 290L802.1 271L776.2 213Z" fill="#0b385c" stroke="#0b385c"></path><path d="M821.1 269L784.1 290L863.1 291Z" fill="#1e4f78" stroke="#1e4f78"></path><path d="M180.8 40L219.8 82L218.8 0Z" fill="#073457" stroke="#073457"></path><path d="M276.7 62L219.8 82L265.7 96Z" fill="#002b4c" stroke="#002b4c"></path><path d="M125.9 246L118.9 290L163.8 269Z" fill="#255984" stroke="#255984"></path><path d="M163.8 269L118.9 290L176.8 281Z" fill="#134167" stroke="#134167"></path><path d="M205.8 228L240.8 167L132.8 153Z" fill="#1e4f78" stroke="#1e4f78"></path><path d="M118.9 290L117.9 367L178.8 356Z" fill="#073457" stroke="#073457"></path><path d="M139.9 478L164.8 516L217.8 430Z" fill="#255984" stroke="#255984"></path><path d="M405.6 0L334.6 0L349.6 62Z" fill="#22547e" stroke="#22547e"></path><path d="M317.6 21L279.7 0L276.7 62Z" fill="#134167" stroke="#134167"></path><path d="M117.9 367L122.9 418L174.8 413Z" fill="#032f51" stroke="#032f51"></path><path d="M763.1 475L827.1 430L769.1 448Z" fill="#032f51" stroke="#032f51"></path><path d="M827.1 430L829.1 367L776.1 391Z" fill="#255984" stroke="#255984"></path><path d="M773.1 574L774.2 501L712.2 535Z" fill="#1e4f78" stroke="#1e4f78"></path><path d="M139.9 478L217.8 430L174.8 413Z" fill="#134167" stroke="#134167"></path><path d="M766.2 120L707.2 224L776.2 213Z" fill="#073457" stroke="#073457"></path><path d="M760.1 98L726.2 87L721.2 103Z" fill="#17466d" stroke="#17466d"></path><path d="M721.2 103L713.2 68L624.3 93Z" fill="#134167" stroke="#134167"></path><path d="M613.4 0L605.3 45L614.4 46Z" fill="#22547e" stroke="#22547e"></path><path d="M122.9 418L125.8 433L174.8 413Z" fill="#22547e" stroke="#22547e"></path><path d="M125.8 433L139.9 478L174.8 413Z" fill="#032f51" stroke="#032f51"></path><path d="M726.2 87L713.2 68L721.2 103Z" fill="#002b4c" stroke="#002b4c"></path><path d="M668.2 0L613.4 0L614.4 46Z" fill="#073457" stroke="#073457"></path><path d="M829.1 367L750.2 311L776.1 391Z" fill="#073457" stroke="#073457"></path><path d="M802.1 271L821.1 269L776.2 213Z" fill="#002b4c" stroke="#002b4c"></path><path d="M132.8 153L240.8 167L240.7 156Z" fill="#22547e" stroke="#22547e"></path><path d="M125.9 246L83.9 222L118.9 290Z" fill="#1a4a72" stroke="#1a4a72"></path><path d="M713.2 68L684.2 36L624.3 93Z" fill="#002b4c" stroke="#002b4c"></path><path d="M828.1 171L766.2 120L776.2 213Z" fill="#002b4c" stroke="#002b4c"></path><path d="M726.2 87L768.1 27L713.2 68Z" fill="#002b4c" stroke="#002b4c"></path><path d="M739.2 0L668.2 0L684.2 36Z" fill="#17466d" stroke="#17466d"></path><path d="M827.1 430L776.1 391L769.1 448Z" fill="#134167" stroke="#134167"></path><path d="M74.9 553L144.8 507L139.9 478Z" fill="#17466d" stroke="#17466d"></path><path d="M139.9 478L144.8 507L164.8 516Z" fill="#134167" stroke="#134167"></path><path d="M164.8 516L181.8 561L244.8 492Z" fill="#134167" stroke="#134167"></path><path d="M144.8 507L181.8 561L164.8 516Z" fill="#002b4c" stroke="#002b4c"></path><path d="M668.3 600L715.2 600L703.2 535Z" fill="#0f3c61" stroke="#0f3c61"></path><path d="M815.1 121L760.1 98L766.2 120Z" fill="#22547e" stroke="#22547e"></path><path d="M766.2 120L760.1 98L721.2 103Z" fill="#0f3c61" stroke="#0f3c61"></path><path d="M219.8 82L132.8 153L240.7 156Z" fill="#22547e" stroke="#22547e"></path><path d="M334.6 0L279.7 0L317.6 21Z" fill="#0b385c" stroke="#0b385c"></path><path d="M219.8 82L178.8 66L132.8 153Z" fill="#22547e" stroke="#22547e"></path><path d="M774.2 501L827.1 430L763.1 475Z" fill="#17466d" stroke="#17466d"></path><path d="M845.1 422L827.1 430L878.1 482Z" fill="#002b4c" stroke="#002b4c"></path><path d="M181.8 561L201.8 600L284.7 600Z" fill="#255984" stroke="#255984"></path><path d="M154.8 600L201.8 600L181.8 561Z" fill="#17466d" stroke="#17466d"></path><path d="M122.9 418L95.9 415L125.8 433Z" fill="#22547e" stroke="#22547e"></path><path d="M125.8 433L42.9 447L139.9 478Z" fill="#1e4f78" stroke="#1e4f78"></path><path d="M117.9 367L95.9 415L122.9 418Z" fill="#1a4a72" stroke="#1a4a72"></path><path d="M42.9 447L95.9 415L23.9 387Z" fill="#002b4c" stroke="#002b4c"></path><path d="M23.9 387L117.9 367L17.9 352Z" fill="#073457" stroke="#073457"></path><path d="M739.2 0L684.2 36L713.2 68Z" fill="#0b385c" stroke="#0b385c"></path><path d="M684.2 36L668.2 0L614.4 46Z" fill="#0f3c61" stroke="#0f3c61"></path><path d="M180.8 40L178.8 66L219.8 82Z" fill="#0b385c" stroke="#0b385c"></path><path d="M878.1 482L827.1 430L774.2 501Z" fill="#22547e" stroke="#22547e"></path><path d="M827.1 430L845.1 422L829.1 367Z" fill="#255984" stroke="#255984"></path><path d="M829.1 367L863.1 291L784.1 290Z" fill="#255984" stroke="#255984"></path><path d="M821.1 269L828.1 176L776.2 213Z" fill="#0f3c61" stroke="#0f3c61"></path><path d="M868.1 186L828.1 176L821.1 269Z" fill="#22547e" stroke="#22547e"></path><path d="M715.2 600L773.1 574L712.2 535Z" fill="#255984" stroke="#255984"></path><path d="M868.1 186L828.1 171L828.1 176Z" fill="#1a4a72" stroke="#1a4a72"></path><path d="M828.1 176L828.1 171L776.2 213Z" fill="#134167" stroke="#134167"></path><path d="M80.9 138L122.8 207L132.8 153Z" fill="#073457" stroke="#073457"></path><path d="M80.9 138L83.9 222L122.8 207Z" fill="#1e4f78" stroke="#1e4f78"></path><path d="M122.8 207L83.9 222L125.9 246Z" fill="#255984" stroke="#255984"></path><path d="M872.1 321L863.1 291L829.1 367Z" fill="#0f3c61" stroke="#0f3c61"></path><path d="M715.2 600L760.2 600L773.1 574Z" fill="#22547e" stroke="#22547e"></path><path d="M760.2 600L762.1 600L773.1 574Z" fill="#032f51" stroke="#032f51"></path><path d="M900 369L829.1 367L845.1 422Z" fill="#17466d" stroke="#17466d"></path><path d="M218.8 0L219.8 82L276.7 62Z" fill="#0b385c" stroke="#0b385c"></path><path d="M178.8 66L128.8 98L132.8 153Z" fill="#032f51" stroke="#032f51"></path><path d="M865.1 136L815.1 121L828.1 171Z" fill="#073457" stroke="#073457"></path><path d="M828.1 171L815.1 121L766.2 120Z" fill="#002b4c" stroke="#002b4c"></path><path d="M760.1 98L768.1 27L726.2 87Z" fill="#1e4f78" stroke="#1e4f78"></path><path d="M180.8 40L128.8 98L178.8 66Z" fill="#22547e" stroke="#22547e"></path><path d="M900 360L872.1 321L829.1 367Z" fill="#22547e" stroke="#22547e"></path><path d="M900 210L868.1 186L821.1 269Z" fill="#255984" stroke="#255984"></path><path d="M279.7 0L218.8 0L276.7 62Z" fill="#17466d" stroke="#17466d"></path><path d="M118.9 600L181.8 561L144.8 507Z" fill="#032f51" stroke="#032f51"></path><path d="M118.9 600L154.8 600L181.8 561Z" fill="#0f3c61" stroke="#0f3c61"></path><path d="M815.1 121L768.1 27L760.1 98Z" fill="#032f51" stroke="#032f51"></path><path d="M768.1 27L739.2 0L713.2 68Z" fill="#0f3c61" stroke="#0f3c61"></path><path d="M830.1 0L802.1 0L768.1 27Z" fill="#0b385c" stroke="#0b385c"></path><path d="M900 210L821.1 269L863.1 291Z" fill="#134167" stroke="#134167"></path><path d="M91.9 82L97.9 107L128.8 98Z" fill="#22547e" stroke="#22547e"></path><path d="M128.8 98L97.9 107L132.8 153Z" fill="#073457" stroke="#073457"></path><path d="M91.9 82L128.8 98L180.8 40Z" fill="#17466d" stroke="#17466d"></path><path d="M97.9 107L83.9 132L132.8 153Z" fill="#255984" stroke="#255984"></path><path d="M83.9 132L80.9 138L132.8 153Z" fill="#0b385c" stroke="#0b385c"></path><path d="M218.8 0L184.8 0L180.8 40Z" fill="#0f3c61" stroke="#0f3c61"></path><path d="M80.9 138L41.9 232L83.9 222Z" fill="#1a4a72" stroke="#1a4a72"></path><path d="M83.9 222L41.9 232L118.9 290Z" fill="#073457" stroke="#073457"></path><path d="M900 369L845.1 422L900 449Z" fill="#1a4a72" stroke="#1a4a72"></path><path d="M900 369L900 360L829.1 367Z" fill="#1a4a72" stroke="#1a4a72"></path><path d="M872.1 321L900 285L863.1 291Z" fill="#17466d" stroke="#17466d"></path><path d="M878.1 482L774.2 501L867.1 575Z" fill="#0f3c61" stroke="#0f3c61"></path><path d="M900 360L900 285L872.1 321Z" fill="#255984" stroke="#255984"></path><path d="M900 285L900 280L863.1 291Z" fill="#22547e" stroke="#22547e"></path><path d="M23.9 387L95.9 415L117.9 367Z" fill="#032f51" stroke="#032f51"></path><path d="M95.9 415L42.9 447L125.8 433Z" fill="#0f3c61" stroke="#0f3c61"></path><path d="M74.9 553L118.9 600L144.8 507Z" fill="#1a4a72" stroke="#1a4a72"></path><path d="M867.1 575L774.2 501L773.1 574Z" fill="#255984" stroke="#255984"></path><path d="M900 154L865.1 136L868.1 186Z" fill="#032f51" stroke="#032f51"></path><path d="M868.1 186L865.1 136L828.1 171Z" fill="#0f3c61" stroke="#0f3c61"></path><path d="M18.9 329L117.9 367L118.9 290Z" fill="#22547e" stroke="#22547e"></path><path d="M41.9 232L18.9 329L118.9 290Z" fill="#1a4a72" stroke="#1a4a72"></path><path d="M0 122L0 143L80.9 138Z" fill="#032f51" stroke="#032f51"></path><path d="M0 218L16.9 241L41.9 232Z" fill="#1a4a72" stroke="#1a4a72"></path><path d="M97.9 107L81.9 80L83.9 132Z" fill="#1a4a72" stroke="#1a4a72"></path><path d="M91.9 0L91.9 82L180.8 40Z" fill="#1a4a72" stroke="#1a4a72"></path><path d="M18.9 329L17.9 352L117.9 367Z" fill="#1a4a72" stroke="#1a4a72"></path><path d="M900 280L900 210L863.1 291Z" fill="#0b385c" stroke="#0b385c"></path><path d="M42.9 447L74.9 553L139.9 478Z" fill="#255984" stroke="#255984"></path><path d="M39.9 537L74.9 553L42.9 447Z" fill="#0f3c61" stroke="#0f3c61"></path><path d="M762.1 600L824.1 600L773.1 574Z" fill="#255984" stroke="#255984"></path><path d="M900 485L900 449L878.1 482Z" fill="#1e4f78" stroke="#1e4f78"></path><path d="M878.1 482L900 449L845.1 422Z" fill="#1a4a72" stroke="#1a4a72"></path><path d="M91.9 0L81.9 80L91.9 82Z" fill="#002b4c" stroke="#002b4c"></path><path d="M91.9 82L81.9 80L97.9 107Z" fill="#17466d" stroke="#17466d"></path><path d="M0 218L41.9 232L0 203Z" fill="#0f3c61" stroke="#0f3c61"></path><path d="M41.9 232L16.9 241L18.9 329Z" fill="#255984" stroke="#255984"></path><path d="M18.9 329L0 340L17.9 352Z" fill="#22547e" stroke="#22547e"></path><path d="M900 553L900 485L878.1 482Z" fill="#255984" stroke="#255984"></path><path d="M17.9 352L0 340L23.9 387Z" fill="#17466d" stroke="#17466d"></path><path d="M0 482L39.9 537L42.9 447Z" fill="#1e4f78" stroke="#1e4f78"></path><path d="M16.9 241L0 329L18.9 329Z" fill="#255984" stroke="#255984"></path><path d="M0 329L0 340L18.9 329Z" fill="#032f51" stroke="#032f51"></path><path d="M900 210L900 154L868.1 186Z" fill="#032f51" stroke="#032f51"></path><path d="M830.1 0L768.1 27L871.1 30Z" fill="#17466d" stroke="#17466d"></path><path d="M768.1 27L815.1 121L871.1 30Z" fill="#1a4a72" stroke="#1a4a72"></path><path d="M768.1 27L802.1 0L739.2 0Z" fill="#134167" stroke="#134167"></path><path d="M824.1 600L867.1 575L773.1 574Z" fill="#073457" stroke="#073457"></path><path d="M0 437L42.9 447L23.9 387Z" fill="#0b385c" stroke="#0b385c"></path><path d="M74.9 553L20.9 600L118.9 600Z" fill="#134167" stroke="#134167"></path><path d="M0 203L41.9 232L80.9 138Z" fill="#0b385c" stroke="#0b385c"></path><path d="M16.9 241L0 218L0 329Z" fill="#22547e" stroke="#22547e"></path><path d="M0 340L0 437L23.9 387Z" fill="#073457" stroke="#073457"></path><path d="M0 143L0 203L80.9 138Z" fill="#1e4f78" stroke="#1e4f78"></path><path d="M0 437L0 473L42.9 447Z" fill="#002b4c" stroke="#002b4c"></path><path d="M867.1 575L900 553L878.1 482Z" fill="#073457" stroke="#073457"></path><path d="M871.1 30L815.1 121L900 66Z" fill="#22547e" stroke="#22547e"></path><path d="M0 473L0 482L42.9 447Z" fill="#002b4c" stroke="#002b4c"></path><path d="M184.8 0L91.9 0L180.8 40Z" fill="#255984" stroke="#255984"></path><path d="M22.9 79L80.9 138L83.9 132Z" fill="#0b385c" stroke="#0b385c"></path><path d="M22.9 79L83.9 132L81.9 80Z" fill="#1a4a72" stroke="#1a4a72"></path><path d="M900 66L815.1 121L865.1 136Z" fill="#002b4c" stroke="#002b4c"></path><path d="M0 482L0 524L39.9 537Z" fill="#0f3c61" stroke="#0f3c61"></path><path d="M39.9 537L16.9 569L74.9 553Z" fill="#1e4f78" stroke="#1e4f78"></path><path d="M25.9 0L22.9 79L81.9 80Z" fill="#1a4a72" stroke="#1a4a72"></path><path d="M900 154L900 66L865.1 136Z" fill="#134167" stroke="#134167"></path><path d="M22.9 79L0 122L80.9 138Z" fill="#134167" stroke="#134167"></path><path d="M0 524L16.9 569L39.9 537Z" fill="#0f3c61" stroke="#0f3c61"></path><path d="M824.1 600L900 600L867.1 575Z" fill="#1e4f78" stroke="#1e4f78"></path><path d="M867.1 575L900 600L900 553Z" fill="#0b385c" stroke="#0b385c"></path><path d="M0 600L20.9 600L16.9 569Z" fill="#1a4a72" stroke="#1a4a72"></path><path d="M16.9 569L20.9 600L74.9 553Z" fill="#0f3c61" stroke="#0f3c61"></path><path d="M900 66L900 17L871.1 30Z" fill="#1a4a72" stroke="#1a4a72"></path><path d="M871.1 30L900 0L830.1 0Z" fill="#073457" stroke="#073457"></path><path d="M0 524L0 600L16.9 569Z" fill="#17466d" stroke="#17466d"></path><path d="M900 17L900 0L871.1 30Z" fill="#134167" stroke="#134167"></path><path d="M25.9 0L0 41L22.9 79Z" fill="#134167" stroke="#134167"></path><path d="M22.9 79L0 41L0 122Z" fill="#0b385c" stroke="#0b385c"></path><path d="M91.9 0L25.9 0L81.9 80Z" fill="#22547e" stroke="#22547e"></path><path d="M25.9 0L0 0L0 41Z" fill="#255984" stroke="#255984"></path></g></svg>