<svg id="visual" viewBox="0 0 960 540" width="960" height="540" xmlns="http://www.w3.org/2000/svg" xmlns:xlink="http://www.w3.org/1999/xlink" version="1.1"><rect x="0" y="0" width="960" height="540" fill="#ffffff"></rect><path d="M526 0L527.3 18C528.7 36 531.3 72 512.7 108C494 144 454 180 407.3 216C360.7 252 307.3 288 310 324C312.7 360 371.3 396 389.7 432C408 468 386 504 375 522L364 540L0 540L0 522C0 504 0 468 0 432C0 396 0 360 0 324C0 288 0 252 0 216C0 180 0 144 0 108C0 72 0 36 0 18L0 0Z" fill="#b8d5ff" stroke-linecap="round" stroke-linejoin="miter"></path></svg>