<svg id="visual" viewBox="0 0 960 540" width="960" height="540" xmlns="http://www.w3.org/2000/svg" xmlns:xlink="http://www.w3.org/1999/xlink" version="1.1"><g transform="translate(472.22986836151733 212.00725825069884)"><path d="M331 -514.1C387.4 -478.9 362.9 -316.7 397.7 -195C432.5 -73.3 526.5 8 516 73.5C505.4 138.9 390.3 188.7 304.8 235C219.4 281.4 163.6 324.4 82.4 405.3C1.1 486.1 -105.6 604.8 -225.7 632C-345.7 659.1 -478.9 594.8 -498.6 482.1C-518.3 369.5 -424.5 208.5 -368.5 99.1C-312.5 -10.4 -294.4 -68.3 -308.3 -183.6C-322.3 -298.9 -368.2 -471.7 -322.1 -511.6C-276.1 -551.6 -138 -458.8 -0.4 -458.2C137.3 -457.7 274.6 -549.4 331 -514.1" fill="#517bb7"></path></g></svg>