<svg id="visual" viewBox="0 0 180 200" width="180" height="200" xmlns="http://www.w3.org/2000/svg" xmlns:xlink="http://www.w3.org/1999/xlink" version="1.1"><g transform="translate(88.75792403462326 80.72589855953449)"><path d="M30.4 -32.2C42.7 -25.9 58.3 -19.5 61.4 -9.7C64.5 0.2 55.2 13.3 49.3 33.1C43.4 52.9 41 79.3 29.4 85.5C17.9 91.8 -2.7 77.8 -20.4 66.7C-38 55.6 -52.8 47.3 -57.6 35.1C-62.4 22.9 -57.3 6.9 -52.7 -7.6C-48.1 -22 -44 -34.7 -35.3 -41.7C-26.6 -48.7 -13.3 -49.8 -2.1 -47.3C9 -44.8 18.1 -38.6 30.4 -32.2" fill="#4b6fb0"></path></g></svg>