<svg id="visual" viewBox="0 0 180 200" width="180" height="200" xmlns="http://www.w3.org/2000/svg" xmlns:xlink="http://www.w3.org/1999/xlink" version="1.1"><g transform="translate(101.13581439281313 119.23921422554079)"><path d="M20.5 -32.8C26.9 -19.1 32.7 -12.9 34 -5.9C35.4 1.1 32.3 9 28.7 17.8C25.1 26.6 20.9 36.3 14.1 38.8C7.3 41.3 -2.2 36.6 -15.9 35.3C-29.7 34 -47.8 36 -53.9 29.2C-60 22.5 -54.1 7 -52.8 -10.8C-51.5 -28.7 -54.7 -48.8 -46.6 -62.2C-38.6 -75.6 -19.3 -82.3 -6.1 -75C7.1 -67.8 14.1 -46.5 20.5 -32.8" fill="#4b6fb0"></path></g></svg>