<svg id="visual" viewBox="0 0 180 200" width="180" height="200" xmlns="http://www.w3.org/2000/svg" xmlns:xlink="http://www.w3.org/1999/xlink" version="1.1"><g transform="translate(86.28113025804723 95.59215109561663)"><path d="M59.2 -59.6C77.6 -55 94.2 -37.3 91.1 -21.1C88 -4.9 65.2 9.8 52.5 28.9C39.8 48 37.2 71.4 27.7 74C18.2 76.5 1.9 58.1 -17.7 50.3C-37.3 42.4 -60.2 45.2 -72.3 36.1C-84.3 26.9 -85.5 5.8 -82.9 -15.6C-80.3 -37 -73.9 -58.7 -59.4 -64C-45 -69.3 -22.5 -58.1 -1.1 -56.9C20.4 -55.6 40.7 -64.2 59.2 -59.6" fill="#4b6fb0"></path></g></svg>